ply
format ascii 1.0
comment Created by Blender 2.83.5 - www.blender.org, source file: ''
element vertex 532
property float x
property float y
property float z
property float nx
property float ny
property float nz
property uchar red
property uchar green
property uchar blue
property uchar alpha
element face 200
property list uchar uint vertex_indices
end_header
-0.002812 1.204568 0.918427 1.000000 -0.000000 -0.000000 91 94 91 255
-0.002812 -1.207154 0.918427 1.000000 -0.000000 -0.000000 201 210 56 255
-0.002812 -1.207154 -0.841004 1.000000 -0.000000 -0.000000 91 94 91 255
-0.002812 1.204568 -0.841004 1.000000 -0.000000 -0.000000 182 189 66 255
-0.005606 -1.207154 0.918427 -1.000000 0.000000 0.000000 198 208 58 255
-0.005606 1.204568 0.918427 -1.000000 0.000000 0.000000 244 255 3 255
-0.005606 1.204568 -0.841004 -1.000000 0.000000 0.000000 91 94 91 255
-0.005606 -1.207154 -0.841004 -1.000000 0.000000 0.000000 244 255 0 255
-0.010889 1.207816 -0.835355 -0.721424 -0.407651 -0.559794 194 202 66 255
-0.004669 1.205029 -0.841341 -0.721424 -0.407651 -0.559794 91 94 91 255
-0.004669 -1.203179 0.912353 -0.721424 -0.407651 -0.559794 186 194 64 255
-0.010889 -1.200388 0.918338 -0.721526 -0.407588 -0.559708 234 243 104 255
-0.010889 1.207816 -0.835355 -0.721526 -0.407588 -0.559708 194 202 66 255
-0.004669 -1.203179 0.912353 -0.721526 -0.407588 -0.559708 186 194 64 255
-0.043301 -1.270632 1.045351 0.000000 0.000000 1.000000 243 254 9 255
0.016562 -1.305194 1.045351 0.000000 0.000000 1.000000 225 235 38 255
0.016561 -1.236070 1.045351 0.000000 0.000000 1.000000 200 208 57 255
-0.043301 1.275821 1.045351 0.000000 0.000000 1.000000 244 255 5 255
0.016562 1.241259 1.045351 0.000000 0.000000 1.000000 241 252 15 255
0.016562 1.310383 1.045351 0.000000 0.000000 1.000000 231 241 32 255
0.038428 1.276416 -0.730867 0.000000 -0.000000 -1.000000 92 95 91 255
-0.003908 1.209018 -0.730867 0.000000 -0.000000 -1.000000 254 255 246 255
0.016748 1.345065 -0.730867 0.000000 -0.000000 -1.000000 91 94 91 255
-0.043655 1.276416 -0.730867 0.000000 -0.000000 -1.000000 243 254 9 255
-0.022007 1.345065 -0.730867 -0.000000 0.000000 -1.000000 223 233 41 255
-0.013283 -1.305802 -1.087249 0.000000 0.000000 1.000000 92 95 92 255
0.029943 -1.271324 -1.087249 0.000000 0.000000 1.000000 92 95 92 255
-0.023872 -1.236776 -1.087249 0.000000 0.000000 1.000000 92 95 92 255
-0.003558 1.208097 -0.756639 -0.000000 0.000000 1.000000 244 255 3 255
0.037734 1.276202 -0.756639 -0.000000 0.000000 1.000000 91 94 91 255
-0.044349 1.276202 -0.756639 -0.000000 0.000000 1.000000 241 252 16 255
0.016054 1.345191 -0.756639 -0.000000 0.000000 1.000000 223 232 40 255
-0.022701 1.345191 -0.756639 0.000000 0.000000 1.000000 204 213 54 255
0.018858 -1.317224 0.019947 0.000003 0.000001 -1.000000 239 239 238 255
-0.022934 -1.317589 0.019947 0.000003 0.000001 -1.000000 253 253 249 255
-0.038571 -1.273273 0.019947 0.000003 0.000001 -1.000000 253 253 247 255
0.044349 -1.274576 0.019947 0.000002 -0.000001 -1.000000 139 144 81 255
0.018858 -1.317224 0.019947 0.000002 -0.000001 -1.000000 239 239 238 255
-0.038571 -1.273273 0.019947 0.000002 -0.000001 -1.000000 253 253 247 255
0.005129 -1.206118 0.019947 0.000002 0.000000 -1.000000 255 255 255 255
0.044349 -1.274576 0.019947 0.000002 0.000000 -1.000000 139 144 81 255
-0.038571 -1.273273 0.019947 0.000002 0.000000 -1.000000 253 253 247 255
-0.018543 -1.206854 0.019947 0.000004 -0.000001 -1.000000 255 255 255 255
0.005129 -1.206118 0.019947 0.000004 -0.000001 -1.000000 255 255 255 255
-0.038571 -1.273273 0.019947 0.000004 -0.000001 -1.000000 253 253 247 255
0.038428 1.276416 -0.730867 -0.953297 -0.301064 0.024192 92 95 91 255
0.016748 1.345065 -0.730867 -0.953297 -0.301064 0.024192 91 94 91 255
0.016054 1.345191 -0.756639 -0.953297 -0.301064 0.024192 91 94 91 255
0.037734 1.276202 -0.756639 -0.953623 -0.299682 0.028162 91 94 91 255
0.038428 1.276416 -0.730867 -0.953623 -0.299682 0.028162 92 95 91 255
0.016054 1.345191 -0.756639 -0.953623 -0.299682 0.028162 91 94 91 255
0.003066 1.215514 -0.730800 -0.864621 0.502060 0.019120 91 94 91 255
0.038428 1.276416 -0.730867 -0.864621 0.502060 0.019120 92 95 91 255
0.037734 1.276202 -0.756639 -0.864621 0.502060 0.019120 91 94 91 255
0.003048 1.212836 -0.756639 -0.876121 0.479585 -0.049096 91 94 91 255
0.003066 1.215514 -0.730800 -0.876121 0.479585 -0.049096 91 94 91 255
0.037734 1.276202 -0.756639 -0.876121 0.479585 -0.049096 91 94 91 255
0.017428 1.316842 -0.010171 -0.858364 -0.513041 -0.000000 244 255 0 255
0.042919 1.274194 -0.010171 -0.858364 -0.513041 -0.000000 244 255 0 255
0.042919 1.274194 0.019947 -0.858364 -0.513041 -0.000000 244 255 2 255
0.017428 1.316842 0.019947 -0.858364 -0.513041 0.000000 244 255 3 255
0.017428 1.316842 -0.010171 -0.008734 -0.999962 -0.000000 244 255 0 255
0.017428 1.316842 0.019947 -0.008734 -0.999962 -0.000000 244 255 3 255
-0.024364 1.317207 0.004888 -0.008734 -0.999962 -0.000000 244 255 0 255
0.042919 1.274194 -0.010171 -0.877255 0.479058 -0.030455 244 255 0 255
0.006954 1.208336 -0.010171 -0.877255 0.479058 -0.030455 244 255 1 255
0.006862 1.210082 0.019947 -0.877255 0.479058 -0.030455 244 255 0 255
0.042919 1.274194 0.019947 -0.871614 0.490192 0.000000 244 255 2 255
0.042919 1.274194 -0.010171 -0.871614 0.490192 0.000000 244 255 0 255
0.006862 1.210082 0.019947 -0.871614 0.490192 0.000000 244 255 0 255
-0.021381 -1.214315 -0.010171 0.956110 -0.289805 -0.043201 91 94 91 255
-0.020784 -1.216834 0.019947 0.956110 -0.289805 -0.043201 91 94 91 255
-0.038571 -1.273273 0.004888 0.956110 -0.289805 -0.043201 91 94 91 255
-0.011953 -1.271167 0.985093 0.887765 -0.000000 -0.460297 91 94 91 255
-0.021076 -1.271167 0.967498 0.887765 -0.000000 -0.460297 91 94 91 255
-0.021076 1.275215 0.967498 0.887765 -0.000000 -0.460297 102 105 102 255
-0.011953 1.275215 0.985093 0.887765 -0.000000 -0.460297 109 111 109 255
-0.011953 1.275215 0.985093 -0.000028 0.000000 -1.000000 109 111 109 255
0.004993 1.275215 0.985093 -0.000028 0.000000 -1.000000 244 255 1 255
0.004993 -1.271167 0.985093 -0.000028 0.000000 -1.000000 244 255 2 255
-0.011953 -1.271167 0.985093 -0.000039 -0.000000 -1.000000 91 94 91 255
-0.011953 1.275215 0.985093 -0.000039 -0.000000 -1.000000 109 111 109 255
0.004993 -1.271167 0.985093 -0.000039 -0.000000 -1.000000 244 255 2 255
-0.021076 -1.271167 0.967498 0.887742 -0.000000 0.460341 91 94 91 255
-0.011952 -1.271167 0.949902 0.887742 -0.000000 0.460341 91 94 91 255
-0.011952 1.275215 0.949902 0.887742 -0.000000 0.460341 97 100 97 255
-0.021076 1.275215 0.967498 0.887742 -0.000000 0.460341 102 105 102 255
-0.011952 -1.271167 0.949902 0.000028 0.000000 1.000000 91 94 91 255
0.004994 -1.271167 0.949902 0.000028 0.000000 1.000000 244 255 2 255
0.004994 1.275215 0.949902 0.000028 0.000000 1.000000 244 255 0 255
-0.011952 1.275215 0.949902 0.000035 -0.000000 1.000000 97 100 97 255
-0.011952 -1.271167 0.949902 0.000035 -0.000000 1.000000 91 94 91 255
0.004994 1.275215 0.949902 0.000035 -0.000000 1.000000 244 255 0 255
0.014117 -1.271167 0.967497 -0.887741 0.000000 -0.460343 243 254 4 255
0.004993 -1.271167 0.985093 -0.887741 0.000000 -0.460343 244 255 2 255
0.004993 1.275215 0.985093 -0.887741 0.000000 -0.460343 244 255 1 255
0.014117 1.275215 0.967497 -0.887743 0.000000 -0.460339 244 255 1 255
0.014117 -1.271167 0.967497 -0.887743 0.000000 -0.460339 243 254 4 255
0.004993 1.275215 0.985093 -0.887743 0.000000 -0.460339 244 255 1 255
0.004994 -1.271167 0.949902 -0.887765 0.000000 0.460298 244 255 2 255
0.014117 -1.271167 0.967497 -0.887765 0.000000 0.460298 243 254 4 255
0.014117 1.275215 0.967497 -0.887765 0.000000 0.460298 244 255 1 255
0.004994 1.275215 0.949902 -0.887765 0.000000 0.460298 244 255 0 255
-0.008663 -1.213058 -0.856440 0.000000 -0.001398 0.999999 91 94 91 255
0.000256 -1.213058 -0.856440 0.000000 -0.001398 0.999999 244 255 0 255
-0.001127 1.215201 -0.853044 0.000000 -0.001398 0.999999 91 94 91 255
-0.010046 1.215367 -0.853130 -0.009656 -0.001368 0.999952 158 165 75 255
-0.008663 -1.213058 -0.856440 -0.009656 -0.001368 0.999952 91 94 91 255
-0.001127 1.215201 -0.853044 -0.009656 -0.001368 0.999952 91 94 91 255
-0.009875 1.215426 0.929279 -0.018577 -0.999827 0.000035 91 94 91 255
-0.010046 1.215367 -0.853130 -0.018577 -0.999827 0.000035 158 165 75 255
-0.001127 1.215201 -0.853044 -0.018577 -0.999827 0.000035 91 94 91 255
-0.001231 1.215426 0.929279 0.000000 -1.000000 0.000126 244 255 2 255
-0.009875 1.215426 0.929279 0.000000 -1.000000 0.000126 91 94 91 255
-0.001127 1.215201 -0.853044 0.000000 -1.000000 0.000126 91 94 91 255
0.001540 -1.213102 0.929013 -0.000000 1.000000 0.000025 209 218 51 255
0.000256 -1.213058 -0.856440 -0.000000 1.000000 0.000025 244 255 0 255
-0.008663 -1.213058 -0.856440 -0.000000 1.000000 0.000025 91 94 91 255
-0.011293 -1.213102 0.929014 0.000000 1.000000 0.000025 168 175 71 255
0.001540 -1.213102 0.929013 -0.000009 0.000109 -1.000000 209 218 51 255
-0.011293 -1.213102 0.929014 -0.000009 0.000109 -1.000000 168 175 71 255
-0.009875 1.215426 0.929279 -0.000009 0.000109 -1.000000 91 94 91 255
-0.001231 1.215426 0.929279 0.000000 0.000109 -1.000000 244 255 2 255
0.001540 -1.213102 0.929013 0.000000 0.000109 -1.000000 209 218 51 255
-0.009875 1.215426 0.929279 0.000000 0.000109 -1.000000 91 94 91 255
-0.010046 1.202035 -0.834554 0.000000 0.000586 -1.000000 191 199 62 255
-0.001127 1.202035 -0.834554 0.000000 0.000586 -1.000000 91 94 91 255
0.001506 -1.199947 -0.835961 0.000000 0.000586 -1.000000 244 255 0 255
-0.008663 -1.199947 -0.835961 0.000000 0.000586 -1.000000 91 94 91 255
0.001506 -1.199947 -0.835961 0.000009 -1.000000 0.000140 244 255 0 255
0.001540 -1.199702 0.916013 0.000009 -1.000000 0.000140 167 175 72 255
-0.011293 -1.199702 0.916013 0.000009 -1.000000 0.000140 220 230 42 255
-0.008663 -1.199947 -0.835961 0.000000 -1.000000 0.000140 91 94 91 255
0.001506 -1.199947 -0.835961 0.000000 -1.000000 0.000140 244 255 0 255
-0.011293 -1.199702 0.916013 0.000000 -1.000000 0.000140 220 230 42 255
-0.001231 1.202026 0.915671 -0.000000 1.000000 0.000005 244 255 4 255
-0.001127 1.202035 -0.834554 -0.000000 1.000000 0.000005 91 94 91 255
-0.010046 1.202035 -0.834554 -0.000000 1.000000 0.000005 191 199 62 255
-0.009875 1.202026 0.915671 0.000000 1.000000 0.000005 91 94 91 255
0.001540 -1.199702 0.916013 -0.000000 0.000143 1.000000 167 175 72 255
-0.001231 1.202026 0.915671 -0.000000 0.000143 1.000000 244 255 4 255
-0.009875 1.202026 0.915671 -0.000000 0.000143 1.000000 91 94 91 255
-0.011293 -1.199702 0.916013 -0.000000 0.000143 1.000000 220 230 42 255
-0.011700 -1.271167 -0.892033 0.882506 -0.000000 -0.470301 255 255 255 255
-0.021076 -1.271167 -0.909628 0.882506 -0.000000 -0.470301 95 98 95 255
-0.021076 1.275215 -0.909628 0.882506 -0.000000 -0.470301 91 94 91 255
-0.011700 1.275215 -0.892033 0.882505 -0.000000 -0.470303 255 255 253 255
-0.011700 -1.271167 -0.892033 0.882505 -0.000000 -0.470303 255 255 255 255
-0.021076 1.275215 -0.909628 0.882505 -0.000000 -0.470303 91 94 91 255
-0.011700 1.275215 -0.892033 -0.000018 0.000000 -1.000000 255 255 253 255
0.004739 1.275215 -0.892034 -0.000018 0.000000 -1.000000 91 94 91 255
0.004739 -1.271167 -0.892034 -0.000018 0.000000 -1.000000 233 243 29 255
-0.011700 -1.271167 -0.892033 -0.000036 -0.000000 -1.000000 255 255 255 255
-0.011700 1.275215 -0.892033 -0.000036 -0.000000 -1.000000 255 255 253 255
0.004739 -1.271167 -0.892034 -0.000036 -0.000000 -1.000000 233 243 29 255
-0.021076 -1.271167 -0.909628 0.882487 -0.000000 0.470336 95 98 95 255
-0.011698 -1.271167 -0.927224 0.882487 -0.000000 0.470336 98 101 98 255
-0.011698 1.275215 -0.927224 0.882487 -0.000000 0.470336 91 94 91 255
-0.021076 1.275215 -0.909628 0.882487 -0.000000 0.470336 91 94 91 255
-0.011698 -1.271167 -0.927224 0.000029 -0.000000 1.000000 98 101 98 255
0.004740 -1.271167 -0.927224 0.000029 -0.000000 1.000000 218 228 44 255
0.004740 1.275215 -0.927224 0.000029 -0.000000 1.000000 91 94 91 255
-0.011698 1.275215 -0.927224 0.000022 -0.000000 1.000000 91 94 91 255
-0.011698 -1.271167 -0.927224 0.000022 -0.000000 1.000000 98 101 98 255
0.004740 1.275215 -0.927224 0.000022 -0.000000 1.000000 91 94 91 255
0.014117 -1.271167 -0.909629 -0.882483 0.000000 -0.470345 223 233 39 255
0.004739 -1.271167 -0.892034 -0.882483 0.000000 -0.470345 233 243 29 255
0.004739 1.275215 -0.892034 -0.882483 0.000000 -0.470345 91 94 91 255
0.014117 1.275215 -0.909629 -0.882485 0.000000 -0.470341 91 94 91 255
0.014117 -1.271167 -0.909629 -0.882485 0.000000 -0.470341 223 233 39 255
0.004739 1.275215 -0.892034 -0.882485 0.000000 -0.470341 91 94 91 255
0.004740 -1.271167 -0.927224 -0.882507 0.000000 0.470300 218 228 44 255
0.014117 -1.271167 -0.909629 -0.882507 0.000000 0.470300 223 233 39 255
0.014117 1.275215 -0.909629 -0.882507 0.000000 0.470300 91 94 91 255
0.004740 1.275215 -0.927224 -0.882506 0.000000 0.470302 91 94 91 255
0.004740 -1.271167 -0.927224 -0.882506 0.000000 0.470302 218 228 44 255
0.014117 1.275215 -0.909629 -0.882506 0.000000 0.470302 91 94 91 255
0.044349 -1.274576 -0.010171 -0.000002 -0.000001 1.000000 224 234 39 255
0.003862 -1.205057 -0.010171 -0.000002 -0.000001 1.000000 223 233 40 255
-0.022934 -1.317589 -0.010171 -0.000002 -0.000001 1.000000 244 255 2 255
0.018858 -1.317224 -0.010171 -0.000003 0.000002 1.000000 239 250 20 255
0.044349 -1.274576 -0.010171 -0.000003 0.000002 1.000000 224 234 39 255
-0.022934 -1.317589 -0.010171 -0.000003 0.000002 1.000000 244 255 2 255
-0.021003 -1.206581 -0.010171 -0.000000 -0.000000 1.000000 237 248 22 255
-0.038571 -1.273273 -0.010171 -0.000000 -0.000000 1.000000 244 255 0 255
-0.022934 -1.317589 -0.010171 -0.000000 -0.000000 1.000000 244 255 2 255
0.003862 -1.205057 -0.010171 -0.000004 0.000000 1.000000 223 233 40 255
-0.021003 -1.206581 -0.010171 -0.000004 0.000000 1.000000 237 248 22 255
-0.022934 -1.317589 -0.010171 -0.000004 0.000000 1.000000 244 255 2 255
0.001540 -1.199702 0.916013 -0.995483 0.094943 0.000006 167 175 72 255
0.001506 -1.199947 -0.835961 -0.995483 0.094943 0.000006 244 255 0 255
0.000256 -1.213058 -0.856440 -0.995483 0.094943 0.000006 244 255 0 255
0.001540 -1.213102 0.929013 -1.000000 0.000698 0.000720 209 218 51 255
0.001540 -1.199702 0.916013 -1.000000 0.000698 0.000720 167 175 72 255
0.000256 -1.213058 -0.856440 -1.000000 0.000698 0.000720 244 255 0 255
-0.011293 -1.213102 0.929014 0.999996 -0.002301 0.001473 168 175 71 255
-0.008663 -1.213058 -0.856440 0.999996 -0.002301 0.001473 91 94 91 255
-0.008663 -1.199947 -0.835961 0.999996 -0.002301 0.001473 91 94 91 255
-0.011293 -1.199702 0.916013 0.999998 0.001456 0.001501 220 230 42 255
-0.011293 -1.213102 0.929014 0.999998 0.001456 0.001501 168 175 71 255
-0.008663 -1.199947 -0.835961 0.999998 0.001456 0.001501 91 94 91 255
-0.010889 -1.200388 0.918338 1.000000 -0.000000 0.000000 234 243 104 255
-0.010889 -1.205890 0.906538 1.000000 -0.000000 0.000000 217 227 45 255
-0.010889 1.202314 -0.847155 1.000000 -0.000000 0.000000 164 171 73 255
-0.010889 1.207816 -0.835355 1.000000 -0.000000 0.000000 194 202 66 255
0.017428 1.316842 -0.010171 -0.000003 -0.000000 1.000000 244 255 0 255
-0.033211 1.316328 -0.010171 -0.000003 -0.000000 1.000000 244 255 0 255
-0.022270 1.204411 -0.010171 -0.000003 -0.000000 1.000000 244 255 0 255
0.017428 1.316842 -0.010171 -0.000001 -0.000001 1.000000 244 255 0 255
-0.022270 1.204411 -0.010171 -0.000001 -0.000001 1.000000 244 255 0 255
0.042919 1.274194 -0.010171 -0.000001 -0.000001 1.000000 244 255 0 255
-0.022270 1.204411 -0.010171 -0.000005 0.000003 1.000000 244 255 0 255
0.004947 1.204471 -0.010171 -0.000005 0.000003 1.000000 244 255 0 255
0.042919 1.274194 -0.010171 -0.000005 0.000003 1.000000 244 255 0 255
0.001804 -1.271167 0.005303 -0.708536 0.000000 -0.705674 244 255 1 255
-0.010767 -1.271167 0.017924 -0.708536 0.000000 -0.705674 254 254 250 255
-0.010767 1.275215 0.017924 -0.708536 0.000000 -0.705674 254 255 247 255
0.001804 1.275215 0.005303 -0.708538 0.000000 -0.705673 244 255 0 255
0.001804 -1.271167 0.005303 -0.708538 0.000000 -0.705673 244 255 1 255
-0.010767 1.275215 0.017924 -0.708538 0.000000 -0.705673 254 255 247 255
-0.023342 1.275215 0.005303 0.708384 -0.000000 -0.705828 244 255 1 255
-0.010767 1.275215 0.017924 0.708384 -0.000000 -0.705828 254 255 247 255
-0.010767 -1.271167 0.017924 0.708384 -0.000000 -0.705828 254 254 250 255
-0.023342 -1.271167 0.005303 0.708382 -0.000000 -0.705829 91 94 91 255
-0.023342 1.275215 0.005303 0.708382 -0.000000 -0.705829 244 255 1 255
-0.010767 -1.271167 0.017924 0.708382 -0.000000 -0.705829 254 254 250 255
-0.010767 -1.271167 -0.007301 -0.708051 0.000000 0.706161 244 255 0 255
0.001804 -1.271167 0.005303 -0.708051 0.000000 0.706161 244 255 1 255
0.001804 1.275215 0.005303 -0.708051 0.000000 0.706161 244 255 0 255
-0.010767 1.275215 -0.007301 -0.708049 0.000000 0.706163 244 255 0 255
-0.010767 -1.271167 -0.007301 -0.708049 0.000000 0.706163 244 255 0 255
0.001804 1.275215 0.005303 -0.708049 0.000000 0.706163 244 255 0 255
-0.023342 -1.271167 0.005303 0.707897 -0.000000 0.706316 91 94 91 255
-0.010767 -1.271167 -0.007301 0.707897 -0.000000 0.706316 244 255 0 255
-0.010767 1.275215 -0.007301 0.707897 -0.000000 0.706316 244 255 0 255
-0.023342 1.275215 0.005303 0.707895 -0.000000 0.706318 244 255 1 255
-0.023342 -1.271167 0.005303 0.707895 -0.000000 0.706318 91 94 91 255
-0.010767 1.275215 -0.007301 0.707895 -0.000000 0.706318 244 255 0 255
0.018858 -1.317224 0.019947 -0.008734 0.999962 0.000000 239 239 238 255
0.018858 -1.317224 -0.010171 -0.008734 0.999962 0.000000 239 250 20 255
-0.022934 -1.317589 0.004888 -0.008734 0.999962 0.000000 237 247 60 255
0.018858 -1.317224 -0.010171 -0.858364 0.513041 0.000000 239 250 20 255
0.018858 -1.317224 0.019947 -0.858364 0.513041 0.000000 239 239 238 255
0.044349 -1.274576 -0.010171 -0.858364 0.513041 0.000000 224 234 39 255
0.044349 -1.274576 0.019947 -0.858364 0.513041 0.000000 139 144 81 255
-0.009875 1.202026 0.915671 1.000000 -0.000136 -0.000097 91 94 91 255
-0.010046 1.202035 -0.834554 1.000000 -0.000136 -0.000097 191 199 62 255
-0.010046 1.215367 -0.853130 1.000000 -0.000136 -0.000097 158 165 75 255
-0.009875 1.215426 0.929279 1.000000 0.000097 -0.000096 91 94 91 255
-0.009875 1.202026 0.915671 1.000000 0.000097 -0.000096 91 94 91 255
-0.010046 1.215367 -0.853130 1.000000 0.000097 -0.000096 158 165 75 255
-0.001231 1.215426 0.929279 -1.000000 -0.000082 -0.000058 244 255 2 255
-0.001127 1.215201 -0.853044 -1.000000 -0.000082 -0.000058 91 94 91 255
-0.001127 1.202035 -0.834554 -1.000000 -0.000082 -0.000058 91 94 91 255
-0.001231 1.202026 0.915671 -1.000000 0.000060 -0.000059 244 255 4 255
-0.001231 1.215426 0.929279 -1.000000 0.000060 -0.000059 244 255 2 255
-0.001127 1.202035 -0.834554 -1.000000 0.000060 -0.000059 91 94 91 255
-0.043655 -1.276416 -0.730867 0.953354 0.300632 -0.027146 255 255 255 255
-0.022007 -1.345065 -0.730867 0.953354 0.300632 -0.027146 92 95 92 255
-0.022701 -1.345191 -0.756639 0.953354 0.300632 -0.027146 92 95 92 255
-0.044349 -1.276202 -0.756639 0.953870 0.299321 -0.023229 91 94 91 255
-0.043655 -1.276416 -0.730867 0.953870 0.299321 -0.023229 255 255 255 255
-0.022701 -1.345191 -0.756639 0.953870 0.299321 -0.023229 92 95 92 255
0.038428 -1.276416 -0.730867 0.000000 0.000000 -1.000000 209 218 51 255
0.016748 -1.345065 -0.730867 0.000000 0.000000 -1.000000 92 95 91 255
-0.022007 -1.345065 -0.730867 0.000000 0.000000 -1.000000 92 95 92 255
-0.003581 -1.208640 -0.730867 0.000000 0.000000 -1.000000 255 255 255 255
-0.043655 -1.276416 -0.730867 -0.000000 0.000000 -1.000000 255 255 255 255
0.044349 -1.274576 -0.010171 -0.871614 -0.490193 -0.000000 224 234 39 255
0.044349 -1.274576 0.019947 -0.871614 -0.490193 -0.000000 139 144 81 255
0.008292 -1.210464 0.019947 -0.871614 -0.490193 -0.000000 222 233 41 255
0.008384 -1.208717 -0.010171 -0.877255 -0.479058 -0.030457 224 234 39 255
0.044349 -1.274576 -0.010171 -0.877255 -0.479058 -0.030457 224 234 39 255
0.008292 -1.210464 0.019947 -0.877255 -0.479058 -0.030457 222 233 41 255
-0.044349 -1.276202 -0.756639 0.000000 0.000000 1.000000 91 94 91 255
-0.022701 -1.345191 -0.756639 0.000000 0.000000 1.000000 91 94 91 255
0.016054 -1.345191 -0.756639 0.000000 0.000000 1.000000 91 94 91 255
-0.003572 -1.209179 -0.756639 0.000000 -0.000000 1.000000 243 254 3 255
0.037734 -1.276202 -0.756639 -0.000000 -0.000000 1.000000 192 200 61 255
0.037734 -1.276202 -0.756639 -0.953722 0.299713 0.024210 192 200 61 255
0.016054 -1.345191 -0.756639 -0.953722 0.299713 0.024210 91 94 91 255
0.016748 -1.345065 -0.730867 -0.953722 0.299713 0.024210 92 95 91 255
0.038428 -1.276416 -0.730867 -0.953198 0.301032 0.028159 209 218 51 255
0.037734 -1.276202 -0.756639 -0.953198 0.301032 0.028159 192 200 61 255
0.016748 -1.345065 -0.730867 -0.953198 0.301032 0.028159 92 95 91 255
0.011091 -1.232416 -0.756639 -0.854127 -0.519728 0.018696 243 254 9 255
0.037734 -1.276202 -0.756639 -0.854127 -0.519728 0.018696 192 200 61 255
0.038428 -1.276416 -0.730867 -0.854127 -0.519728 0.018696 209 218 51 255
0.002763 -1.210179 -0.735348 -0.875720 -0.462061 0.140054 244 255 2 255
0.011091 -1.232416 -0.756639 -0.875720 -0.462061 0.140054 243 254 9 255
0.038428 -1.276416 -0.730867 -0.875720 -0.462061 0.140054 209 218 51 255
-0.044349 -1.276202 0.811970 0.000000 0.000000 1.000000 244 255 0 255
-0.022701 -1.345191 0.811970 0.000000 0.000000 1.000000 243 253 10 255
-0.004974 -1.206665 0.811970 0.000000 0.000000 1.000000 233 244 29 255
0.016054 -1.345191 0.811970 0.000000 0.000000 1.000000 227 237 36 255
0.037734 -1.276202 0.811970 0.000000 0.000000 1.000000 233 243 29 255
0.016054 1.345191 0.811970 0.000000 0.000000 1.000000 216 227 46 255
-0.022701 1.345191 0.811970 0.000000 0.000000 1.000000 92 95 92 255
-0.044349 1.276202 0.811970 0.000000 0.000000 1.000000 94 97 90 255
0.037734 1.276202 0.811970 -0.000000 0.000000 1.000000 243 254 6 255
-0.003558 1.208097 0.811970 -0.000000 0.000000 1.000000 244 255 1 255
-0.022007 -1.345065 0.837742 0.000000 -0.000000 -1.000000 92 95 92 255
-0.043655 -1.276416 0.837742 0.000000 -0.000000 -1.000000 91 94 91 255
-0.003826 -1.207968 0.837742 0.000000 -0.000000 -1.000000 255 255 250 255
0.016748 -1.345065 0.837742 0.000000 -0.000000 -1.000000 255 255 255 255
0.038428 -1.276416 0.837742 0.000000 0.000000 -1.000000 231 241 31 255
-0.001231 1.215426 0.929279 -0.999999 -0.001154 0.001136 244 255 2 255
-0.001231 1.202026 0.915671 -0.999999 -0.001154 0.001136 244 255 4 255
0.001540 -1.199702 0.916013 -0.999999 -0.001154 0.001136 167 175 72 255
0.001540 -1.213102 0.929013 -0.999999 -0.001141 -0.001176 209 218 51 255
-0.001231 1.215426 0.929279 -0.999999 -0.001141 -0.001176 244 255 2 255
0.001540 -1.199702 0.916013 -0.999999 -0.001141 -0.001176 167 175 72 255
-0.011293 -1.213102 0.929014 1.000000 -0.000590 -0.000609 168 175 71 255
-0.011293 -1.199702 0.916013 1.000000 -0.000590 -0.000609 220 230 42 255
-0.009875 1.202026 0.915671 1.000000 -0.000590 -0.000609 91 94 91 255
-0.009875 1.215426 0.929279 1.000000 -0.000584 0.000575 91 94 91 255
-0.011293 -1.213102 0.929014 1.000000 -0.000584 0.000575 168 175 71 255
-0.009875 1.202026 0.915671 1.000000 -0.000584 0.000575 91 94 91 255
-0.043655 -1.276416 0.837742 0.953354 0.300632 -0.027146 91 94 91 255
-0.022007 -1.345065 0.837742 0.953354 0.300632 -0.027146 92 95 92 255
-0.022701 -1.345191 0.811970 0.953354 0.300632 -0.027146 92 95 92 255
-0.044349 -1.276202 0.811970 0.953870 0.299321 -0.023229 244 255 0 255
-0.043655 -1.276416 0.837742 0.953870 0.299321 -0.023229 91 94 91 255
-0.022701 -1.345191 0.811970 0.953870 0.299321 -0.023229 92 95 92 255
-0.022876 1.211802 0.019947 0.969649 0.241435 0.038597 244 255 0 255
-0.022237 1.214050 -0.010171 0.969649 0.241435 0.038597 244 255 1 255
-0.037994 1.274923 0.004888 0.969649 0.241435 0.038597 244 255 2 255
-0.043655 1.276416 0.837742 -0.000000 0.000000 -1.000000 91 94 91 255
-0.022007 1.345065 0.837742 -0.000000 0.000000 -1.000000 92 95 92 255
0.016748 1.345065 0.837742 -0.000000 0.000000 -1.000000 218 227 44 255
-0.003908 1.209018 0.837742 0.000000 -0.000000 -1.000000 255 255 255 255
0.038428 1.276416 0.837742 0.000000 -0.000000 -1.000000 243 254 6 255
0.017428 1.316842 0.019947 0.000003 0.000002 -1.000000 244 255 3 255
0.042919 1.274194 0.019947 0.000003 0.000002 -1.000000 244 255 2 255
-0.024364 1.317207 0.019947 0.000003 0.000002 -1.000000 255 255 250 255
0.042919 1.274194 0.019947 0.000002 -0.000001 -1.000000 244 255 2 255
-0.037994 1.274923 0.019947 0.000002 -0.000001 -1.000000 254 255 245 255
-0.024364 1.317207 0.019947 0.000002 -0.000001 -1.000000 255 255 250 255
0.002588 1.204593 0.019947 0.000002 -0.000001 -1.000000 255 255 253 255
0.002588 1.204593 0.019947 0.000005 0.000001 -1.000000 255 255 253 255
-0.021624 1.206365 0.019947 0.000005 0.000001 -1.000000 255 255 251 255
-0.037994 1.274923 0.019947 0.000005 0.000001 -1.000000 254 255 245 255
0.001506 -1.199947 -0.835961 -0.999999 -0.001096 -0.000780 244 255 0 255
-0.001127 1.202035 -0.834554 -0.999999 -0.001096 -0.000780 91 94 91 255
-0.001127 1.215201 -0.853044 -0.999999 -0.001096 -0.000780 91 94 91 255
0.000256 -1.213058 -0.856440 -0.998115 -0.000654 0.061373 244 255 0 255
0.001506 -1.199947 -0.835961 -0.998115 -0.000654 0.061373 244 255 0 255
-0.001127 1.215201 -0.853044 -0.998115 -0.000654 0.061373 91 94 91 255
-0.013283 1.240427 -1.087249 0.000000 0.000000 1.000000 91 94 91 255
0.029943 1.274905 -1.087249 0.000000 0.000000 1.000000 91 94 91 255
-0.023872 1.309453 -1.087249 0.000000 0.000000 1.000000 91 94 91 255
0.030771 -1.250443 1.057515 -0.801142 -0.008429 -0.598415 171 178 71 255
0.030957 -1.290073 1.057824 -0.801142 -0.008429 -0.598415 187 196 66 255
0.010024 -1.258346 1.085402 -0.801142 -0.008429 -0.598415 160 167 80 255
-0.004284 -1.230757 1.059505 -0.437587 -0.725520 -0.531166 233 239 158 255
0.030771 -1.250443 1.057515 -0.437587 -0.725520 -0.531166 171 178 71 255
0.010024 -1.258346 1.085402 -0.437587 -0.725520 -0.531166 160 167 80 255
-0.004284 -1.230757 1.059505 0.221646 -0.603787 -0.765711 233 239 158 255
0.010024 -1.258346 1.085402 0.221646 -0.603787 -0.765711 160 167 80 255
-0.034370 -1.252180 1.067689 0.221646 -0.603787 -0.765711 95 98 95 255
-0.037734 -1.290911 1.059527 0.758698 0.070596 -0.647606 99 101 99 255
-0.034370 -1.252180 1.067689 0.758698 0.070596 -0.647606 95 98 95 255
-0.017444 -1.285273 1.083912 0.758698 0.070596 -0.647606 103 106 103 255
-0.000433 -1.308989 1.058399 0.368348 0.790528 -0.489269 100 103 100 255
-0.037734 -1.290911 1.059527 0.368348 0.790528 -0.489269 99 101 99 255
-0.017444 -1.285273 1.083912 0.368348 0.790528 -0.489269 103 106 103 255
-0.000433 -1.308989 1.058399 -0.230181 0.631457 -0.740459 100 103 100 255
-0.017444 -1.285273 1.083912 -0.230181 0.631457 -0.740459 103 106 103 255
0.027689 -1.288583 1.067059 -0.230181 0.631457 -0.740459 255 255 253 255
-0.032006 -1.246962 1.045349 0.550296 -0.824107 -0.134247 93 96 93 255
-0.004284 -1.230757 1.059505 0.550296 -0.824107 -0.134247 233 239 158 255
-0.034370 -1.252180 1.067689 0.550296 -0.824107 -0.134247 95 98 95 255
-0.032006 -1.246962 1.045349 0.991378 -0.103131 0.080831 93 96 93 255
-0.034370 -1.252180 1.067689 0.991378 -0.103131 0.080831 95 98 95 255
-0.037734 -1.290911 1.059527 0.991378 -0.103131 0.080831 99 101 99 255
-0.036649 -1.289833 1.045351 0.436367 0.894041 0.101359 96 99 96 255
-0.037734 -1.290911 1.059527 0.436367 0.894041 0.101359 99 101 99 255
-0.000433 -1.308989 1.058399 0.436367 0.894041 0.101359 100 103 100 255
-0.003392 -1.309034 1.045351 0.496651 0.860215 -0.115623 98 100 98 255
-0.036649 -1.289833 1.045351 0.496651 0.860215 -0.115623 96 99 96 255
-0.000433 -1.308989 1.058399 0.496651 0.860215 -0.115623 100 103 100 255
-0.003808 1.236118 1.057535 -0.412586 0.730801 -0.543786 255 255 255 255
0.001676 1.257954 1.082719 -0.412586 0.730801 -0.543786 251 251 251 255
0.030601 1.255768 1.057835 -0.412586 0.730801 -0.543786 231 241 32 255
-0.036972 1.256607 1.061872 0.331511 0.675904 -0.658220 255 255 255 255
0.001676 1.257954 1.082719 0.331511 0.675904 -0.658220 251 251 251 255
-0.003808 1.236118 1.057535 0.331511 0.675904 -0.658220 255 255 255 255
0.029705 1.256512 1.061994 -0.705561 -0.058390 -0.706239 229 239 34 255
0.006330 1.293363 1.082300 -0.705561 -0.058390 -0.706239 215 225 46 255
0.030967 1.295672 1.057496 -0.705561 -0.058390 -0.706239 220 230 42 255
-0.003623 1.315762 1.058066 -0.439512 -0.742387 -0.505659 228 238 36 255
0.030967 1.295672 1.057496 -0.439512 -0.742387 -0.505659 220 230 42 255
0.006330 1.293363 1.082300 -0.439512 -0.742387 -0.505659 215 225 46 255
-0.003623 1.315762 1.058066 0.304611 -0.633856 -0.710942 228 238 36 255
0.006330 1.293363 1.082300 0.304611 -0.633856 -0.710942 215 225 46 255
-0.037053 1.295233 1.062045 0.304611 -0.633856 -0.710942 175 177 175 255
0.018654 1.297642 -1.087249 -0.923868 -0.382711 0.000000 93 96 93 255
0.028073 1.274905 -1.087249 -0.923868 -0.382711 0.000000 93 96 93 255
0.028073 1.274905 1.061074 -0.923868 -0.382711 0.000000 229 239 34 255
0.018654 1.297642 1.061074 -0.923868 -0.382711 0.000000 227 237 37 255
0.018654 1.297642 -1.087249 -0.382665 -0.923887 0.000000 93 96 93 255
0.018654 1.297642 1.061074 -0.382665 -0.923887 0.000000 227 237 37 255
-0.004086 1.307060 -1.087249 -0.382665 -0.923887 0.000000 91 94 91 255
-0.004086 1.307060 1.061074 -0.382665 -0.923887 0.000000 232 243 30 255
-0.026820 1.297642 -1.087249 0.382735 -0.923858 -0.000000 103 105 103 255
-0.004086 1.307060 -1.087249 0.382735 -0.923858 -0.000000 91 94 91 255
-0.004086 1.307060 1.061074 0.382735 -0.923858 -0.000000 232 243 30 255
-0.026825 1.297642 1.061074 0.382665 -0.923887 0.000001 175 177 175 255
-0.026820 1.297642 -1.087249 0.382665 -0.923887 0.000001 103 105 103 255
-0.004086 1.307060 1.061074 0.382665 -0.923887 0.000001 232 243 30 255
-0.036239 1.274905 -1.087249 0.923868 -0.382712 0.000002 101 103 101 255
-0.026820 1.297642 -1.087249 0.923868 -0.382712 0.000002 103 105 103 255
-0.026825 1.297642 1.061074 0.923868 -0.382712 0.000002 175 177 175 255
-0.036239 1.274905 1.061074 0.923938 -0.382542 -0.000000 165 166 165 255
-0.036239 1.274905 -1.087249 0.923938 -0.382542 -0.000000 101 103 101 255
-0.026825 1.297642 1.061074 0.923938 -0.382542 -0.000000 175 177 175 255
-0.026820 1.252168 -1.087249 0.923865 0.382717 -0.000000 99 102 99 255
-0.036239 1.274905 -1.087249 0.923865 0.382717 -0.000000 101 103 101 255
-0.036239 1.274905 1.061074 0.923865 0.382717 -0.000000 165 166 165 255
-0.026825 1.252167 1.061074 0.923938 0.382542 0.000002 152 154 152 255
-0.026820 1.252168 -1.087249 0.923938 0.382542 0.000002 99 102 99 255
-0.036239 1.274905 1.061074 0.923938 0.382542 0.000002 165 166 165 255
-0.004086 1.242749 -1.087249 0.382739 0.923856 0.000001 154 156 154 255
-0.026820 1.252168 -1.087249 0.382739 0.923856 0.000001 99 102 99 255
-0.026825 1.252167 1.061074 0.382739 0.923856 0.000001 152 154 152 255
-0.004086 1.242749 1.061074 0.382656 0.923891 -0.000000 240 240 239 255
-0.004086 1.242749 -1.087249 0.382656 0.923891 -0.000000 154 156 154 255
-0.026825 1.252167 1.061074 0.382656 0.923891 -0.000000 152 154 152 255
0.018654 1.252168 -1.087249 -0.382669 0.923886 0.000000 93 96 93 255
-0.004086 1.242749 -1.087249 -0.382669 0.923886 0.000000 154 156 154 255
-0.004086 1.242749 1.061074 -0.382669 0.923886 0.000000 240 240 239 255
0.018654 1.252167 1.061074 -0.382656 0.923891 0.000000 236 247 25 255
0.018654 1.252168 -1.087249 -0.382656 0.923891 0.000000 93 96 93 255
-0.004086 1.242749 1.061074 -0.382656 0.923891 0.000000 240 240 239 255
0.028073 1.274905 -1.087249 -0.923866 0.382717 0.000000 93 96 93 255
0.018654 1.252168 -1.087249 -0.923866 0.382717 0.000000 93 96 93 255
0.018654 1.252167 1.061074 -0.923866 0.382717 0.000000 236 247 25 255
0.028073 1.274905 1.061074 -0.923868 0.382711 0.000000 229 239 34 255
0.028073 1.274905 -1.087249 -0.923868 0.382711 0.000000 93 96 93 255
0.018654 1.252167 1.061074 -0.923868 0.382711 0.000000 236 247 25 255
0.037734 -1.276202 0.811970 -0.953722 0.299713 0.024210 233 243 29 255
0.016054 -1.345191 0.811970 -0.953722 0.299713 0.024210 227 237 36 255
0.016748 -1.345065 0.837742 -0.953722 0.299713 0.024210 224 235 39 255
0.038428 -1.276416 0.837742 -0.953198 0.301032 0.028159 231 241 31 255
0.037734 -1.276202 0.811970 -0.953198 0.301032 0.028159 233 243 29 255
0.016748 -1.345065 0.837742 -0.953198 0.301032 0.028159 224 235 39 255
0.011091 -1.232416 0.811970 -0.854127 -0.519728 0.018696 231 242 30 255
0.037734 -1.276202 0.811970 -0.854127 -0.519728 0.018696 233 243 29 255
0.038428 -1.276416 0.837742 -0.854127 -0.519728 0.018696 231 241 31 255
0.002763 -1.210179 0.833262 -0.875720 -0.462061 0.140053 201 210 55 255
0.011091 -1.232416 0.811970 -0.875720 -0.462061 0.140053 231 242 30 255
0.038428 -1.276416 0.837742 -0.875720 -0.462061 0.140053 231 241 31 255
-0.044349 1.276202 -0.756639 0.953775 -0.299291 -0.027151 241 252 16 255
-0.022701 1.345191 -0.756639 0.953775 -0.299291 -0.027151 204 213 54 255
-0.022007 1.345065 -0.730867 0.953775 -0.299291 -0.027151 223 233 41 255
-0.043655 1.276416 -0.730867 0.953448 -0.300662 -0.023204 243 254 9 255
-0.044349 1.276202 -0.756639 0.953448 -0.300662 -0.023204 241 252 16 255
-0.022007 1.345065 -0.730867 0.953448 -0.300662 -0.023204 223 233 41 255
-0.010889 1.202314 -0.847155 -0.711423 0.413696 0.568096 164 171 73 255
-0.010889 -1.205890 0.906538 -0.711423 0.413696 0.568096 217 227 45 255
-0.004669 -1.203179 0.912353 -0.711423 0.413696 0.568096 186 194 64 255
-0.004669 1.205029 -0.841341 -0.711506 0.413647 0.568028 91 94 91 255
-0.010889 1.202314 -0.847155 -0.711506 0.413647 0.568028 164 171 73 255
-0.004669 -1.203179 0.912353 -0.711506 0.413647 0.568028 186 194 64 255
0.003048 1.212836 0.811970 -0.876121 0.479585 -0.049092 244 255 1 255
0.003066 1.215514 0.837810 -0.876121 0.479585 -0.049092 244 255 1 255
0.037734 1.276202 0.811970 -0.876121 0.479585 -0.049092 243 254 6 255
0.003066 1.215514 0.837810 -0.864622 0.502059 0.019120 244 255 1 255
0.038428 1.276416 0.837742 -0.864622 0.502059 0.019120 243 254 6 255
0.037734 1.276202 0.811970 -0.864622 0.502059 0.019120 243 254 6 255
0.037734 1.276202 0.811970 -0.953623 -0.299682 0.028162 243 254 6 255
0.038428 1.276416 0.837742 -0.953623 -0.299682 0.028162 243 254 6 255
0.016054 1.345191 0.811970 -0.953623 -0.299682 0.028162 216 227 46 255
0.038428 1.276416 0.837742 -0.953297 -0.301064 0.024192 243 254 6 255
0.016748 1.345065 0.837742 -0.953297 -0.301064 0.024192 218 227 44 255
0.016054 1.345191 0.811970 -0.953297 -0.301064 0.024192 216 227 46 255
-0.008663 -1.199947 -0.835961 1.000000 0.000570 -0.000365 91 94 91 255
-0.008663 -1.213058 -0.856440 1.000000 0.000570 -0.000365 91 94 91 255
-0.010046 1.215367 -0.853130 1.000000 0.000570 -0.000365 158 165 75 255
-0.010046 1.202035 -0.834554 1.000000 0.000576 0.000413 191 199 62 255
-0.008663 -1.199947 -0.835961 1.000000 0.000576 0.000413 91 94 91 255
-0.010046 1.215367 -0.853130 1.000000 0.000576 0.000413 158 165 75 255
0.018653 -1.248587 -1.087249 -0.923868 -0.382711 0.000000 92 95 92 255
0.028072 -1.271324 -1.087249 -0.923868 -0.382711 0.000000 92 95 92 255
0.028072 -1.271324 1.061075 -0.923868 -0.382711 0.000000 188 196 65 255
0.018654 -1.248587 1.061075 -0.923868 -0.382711 0.000000 188 196 63 255
0.018653 -1.248587 -1.087249 -0.382665 -0.923887 0.000000 92 95 92 255
0.018654 -1.248587 1.061075 -0.382665 -0.923887 0.000000 188 196 63 255
-0.004086 -1.239169 -1.087249 -0.382665 -0.923887 0.000000 92 95 92 255
-0.004086 -1.239169 1.061075 -0.382665 -0.923887 0.000000 209 217 51 255
-0.026820 -1.248587 -1.087249 0.382735 -0.923858 -0.000000 163 164 163 255
-0.004086 -1.239169 -1.087249 0.382735 -0.923858 -0.000000 92 95 92 255
-0.004086 -1.239169 1.061075 0.382735 -0.923858 -0.000000 209 217 51 255
-0.026825 -1.248587 1.061075 0.382665 -0.923887 0.000001 94 97 94 255
-0.026820 -1.248587 -1.087249 0.382665 -0.923887 0.000001 163 164 163 255
-0.004086 -1.239169 1.061075 0.382665 -0.923887 0.000001 209 217 51 255
-0.036239 -1.271324 -1.087249 0.923868 -0.382712 0.000002 178 179 178 255
-0.026820 -1.248587 -1.087249 0.923868 -0.382712 0.000002 163 164 163 255
-0.026825 -1.248587 1.061075 0.923868 -0.382712 0.000002 94 97 94 255
-0.036239 -1.271324 1.061075 0.923938 -0.382542 -0.000000 96 99 96 255
-0.036239 -1.271324 -1.087249 0.923938 -0.382542 -0.000000 178 179 178 255
-0.026825 -1.248587 1.061075 0.923938 -0.382542 -0.000000 94 97 94 255
-0.026820 -1.294062 -1.087249 0.923867 0.382714 -0.000000 190 191 190 255
-0.036239 -1.271324 -1.087249 0.923867 0.382714 -0.000000 178 179 178 255
-0.036239 -1.271324 1.061075 0.923867 0.382714 -0.000000 96 99 96 255
-0.026825 -1.294062 1.061075 0.923938 0.382542 0.000002 99 102 99 255
-0.026820 -1.294062 -1.087249 0.923938 0.382542 0.000002 190 191 190 255
-0.036239 -1.271324 1.061075 0.923938 0.382542 0.000002 96 99 96 255
-0.004086 -1.303480 -1.087249 0.382731 0.923860 0.000001 222 222 222 255
-0.026820 -1.294062 -1.087249 0.382731 0.923860 0.000001 190 191 190 255
-0.026825 -1.294062 1.061075 0.382731 0.923860 0.000001 99 102 99 255
-0.004086 -1.303480 1.061075 0.382656 0.923891 -0.000000 100 103 100 255
-0.004086 -1.303480 -1.087249 0.382656 0.923891 -0.000000 222 222 222 255
-0.026825 -1.294062 1.061075 0.382656 0.923891 -0.000000 99 102 99 255
0.018653 -1.294062 -1.087249 -0.382661 0.923889 0.000000 92 95 92 255
-0.004086 -1.303480 -1.087249 -0.382661 0.923889 0.000000 222 222 222 255
-0.004086 -1.303480 1.061075 -0.382661 0.923889 0.000000 100 103 100 255
0.018654 -1.294062 1.061075 -0.382656 0.923891 0.000000 206 215 56 255
0.018653 -1.294062 -1.087249 -0.382656 0.923891 0.000000 92 95 92 255
-0.004086 -1.303480 1.061075 -0.382656 0.923891 0.000000 100 103 100 255
0.028072 -1.271324 -1.087249 -0.923867 0.382713 0.000000 92 95 92 255
0.018653 -1.294062 -1.087249 -0.923867 0.382713 0.000000 92 95 92 255
0.018654 -1.294062 1.061075 -0.923867 0.382713 0.000000 206 215 56 255
0.028072 -1.271324 1.061075 -0.923868 0.382711 0.000000 188 196 65 255
0.028072 -1.271324 -1.087249 -0.923868 0.382711 0.000000 92 95 92 255
0.018654 -1.294062 1.061075 -0.923868 0.382711 0.000000 206 215 56 255
-0.044349 1.276202 0.811970 0.953775 -0.299291 -0.027151 94 97 90 255
-0.022701 1.345191 0.811970 0.953775 -0.299291 -0.027151 92 95 92 255
-0.022007 1.345065 0.837742 0.953775 -0.299291 -0.027151 92 95 92 255
-0.043655 1.276416 0.837742 0.953448 -0.300662 -0.023204 91 94 91 255
-0.044349 1.276202 0.811970 0.953448 -0.300662 -0.023204 94 97 90 255
-0.022007 1.345065 0.837742 0.953448 -0.300662 -0.023204 92 95 92 255
3 0 1 2
3 3 0 2
3 4 5 6
3 7 4 6
3 8 9 10
3 11 12 13
3 14 15 16
3 17 18 19
3 20 21 22
3 21 23 22
3 23 24 22
3 25 26 27
3 28 29 30
3 29 31 30
3 31 32 30
3 33 34 35
3 36 37 38
3 39 40 41
3 42 43 44
3 45 46 47
3 48 49 50
3 51 52 53
3 54 55 56
3 57 58 59
3 60 57 59
3 61 62 63
3 64 65 66
3 67 68 69
3 70 71 72
3 73 74 75
3 76 73 75
3 77 78 79
3 80 81 82
3 83 84 85
3 86 83 85
3 87 88 89
3 90 91 92
3 93 94 95
3 96 97 98
3 99 100 101
3 102 99 101
3 103 104 105
3 106 107 108
3 109 110 111
3 112 113 114
3 115 116 117
3 118 115 117
3 119 120 121
3 122 123 124
3 125 126 127
3 128 125 127
3 129 130 131
3 132 133 134
3 135 136 137
3 138 135 137
3 139 140 141
3 142 139 141
3 143 144 145
3 146 147 148
3 149 150 151
3 152 153 154
3 155 156 157
3 158 155 157
3 159 160 161
3 162 163 164
3 165 166 167
3 168 169 170
3 171 172 173
3 174 175 176
3 177 178 179
3 180 181 182
3 183 184 185
3 186 187 188
3 189 190 191
3 192 193 194
3 195 196 197
3 198 199 200
3 201 202 203
3 204 201 203
3 205 206 207
3 208 209 210
3 211 212 213
3 214 215 216
3 217 218 219
3 220 221 222
3 223 224 225
3 226 227 228
3 229 230 231
3 232 233 234
3 235 236 237
3 238 239 240
3 241 242 243
3 242 244 243
3 245 246 247
3 248 249 250
3 251 252 253
3 254 255 256
3 257 258 259
3 260 261 262
3 263 264 265
3 266 263 265
3 267 266 265
3 268 269 270
3 271 272 273
3 274 275 276
3 277 274 276
3 278 277 276
3 279 280 281
3 282 283 284
3 285 286 287
3 288 289 290
3 291 292 293
3 292 294 293
3 294 295 293
3 296 297 298
3 299 296 298
3 300 299 298
3 301 302 303
3 304 301 303
3 305 304 303
3 306 307 308
3 309 310 311
3 312 313 314
3 315 316 317
3 318 319 320
3 321 322 323
3 324 325 326
3 327 328 329
3 330 327 329
3 331 330 329
3 332 333 334
3 335 336 337
3 335 338 336
3 339 340 341
3 342 343 344
3 345 346 347
3 348 349 350
3 351 352 353
3 354 355 356
3 357 358 359
3 360 361 362
3 363 364 365
3 366 367 368
3 369 370 371
3 372 373 374
3 375 376 377
3 378 379 380
3 381 382 383
3 384 385 386
3 387 388 389
3 390 391 392
3 393 394 395
3 396 397 398
3 399 396 398
3 400 401 402
3 401 403 402
3 404 405 406
3 407 408 409
3 410 411 412
3 413 414 415
3 416 417 418
3 419 420 421
3 422 423 424
3 425 426 427
3 428 429 430
3 431 432 433
3 434 435 436
3 437 438 439
3 440 441 442
3 443 444 445
3 446 447 448
3 449 450 451
3 452 453 454
3 455 456 457
3 458 459 460
3 461 462 463
3 464 465 466
3 467 468 469
3 470 471 472
3 473 474 475
3 476 477 478
3 479 480 481
3 482 483 484
3 485 482 484
3 486 487 488
3 487 489 488
3 490 491 492
3 493 494 495
3 496 497 498
3 499 500 501
3 502 503 504
3 505 506 507
3 508 509 510
3 511 512 513
3 514 515 516
3 517 518 519
3 520 521 522
3 523 524 525
3 526 527 528
3 529 530 531
